# xmcd
#
# Track frame offsets: 
#        225
#        18015
#        31525
#        51798
#        63133
#        76966
#        89624
#        100515
#        125113
#        139068
#        158975
#
# Disc length: 2334 seconds
#
# Revision: 0
# Processed by: cddbd v1.5.2PL0 Copyright (c) Steve Scherf et al.
# Submitted via: ExactAudioCopy v0.99pb5
#
DISCID=7f091b0b
DTITLE=Marco Fratantonio - Origini
DYEAR=2003
DGENRE=Jazz
TTITLE0=Origini [Versione Radiofonica]
TTITLE1=Luna Park [Versione Radiofonica]
TTITLE2=Pomeriggio Siciliano
TTITLE3=Lazzari's
TTITLE4=I Fall In Love Only With Your Dreams?
TTITLE5=Origini
TTITLE6=Modulante
TTITLE7=Playing The Falling In Love "Samba For Romana"
TTITLE8=Bianco E Nero
TTITLE9=Luna Park
TTITLE10=Un Altro Valzer
EXTD=
EXTT0=
EXTT1=
EXTT2=
EXTT3=
EXTT4=
EXTT5=
EXTT6=
EXTT7=
EXTT8=
EXTT9=
EXTT10=
PLAYORDER=
